<?xml version="1.0" encoding="UTF-8"?><svg id="b" xmlns="http://www.w3.org/2000/svg" width="231.906" height="245.441" viewBox="0 0 231.906 245.441"><defs><style>.k{fill:#fff;}.k,.l,.m{stroke-width:0px;}.l{fill:#3d8dcc;}.m{fill:#211715;}</style></defs><g id="c"><path class="k" d="M220.131,226.904c.105-.171.193-.345.263-.52.81-2.03.25-4.34-1.38-6.15-1.54-1.72-3.37-3.02-5.42-4.73-.362-.211-.603-.473-.832-.78-.519.225-1.068.364-1.632.395-2.435.135-6.233.068-11.374.065-.382.905-.672,1.59-.672,1.59-.41.97-.08,2.9.39,3.98.72,1.64,1.97,3.26,3.59,4.4,2.36,1.65,4.75,3.16,7.47,4.18,1.02.38,3.14.66,5.33.49,1.437-.277,3.399-1.501,4.267-2.92Z"/><path class="k" d="M200.979,234.767c.246-.282.464-.578.646-.883,1.27-2.16.36-4.42-1.15-6.43-1.573-2.094-3.407-3.548-5.591-5.062-3.616.764-10.628,1.609-15.021.338-.738,1.505-.778,3.405-.518,4.655.47,2.23,1.81,3.62,3.08,4.57,2.22,1.68,5.43,3.45,7.66,4.45,1.65.74,5.15.92,6.95.65,1.44-.217,2.932-1.127,3.944-2.287Z"/><g id="d"><path class="k" d="M2.05,186.771v-107.366c0-1.093.583-2.104,1.53-2.65L132.364,2.401c2.04-1.178,4.591.294,4.591,2.65v103.832c0,1.093.583,2.104,1.53,2.65l89.922,51.916c2.04,1.178,2.04,4.123,0,5.301l-128.784,74.353c-.947.547-2.114.547-3.06,0L3.58,189.422c-.947-.547-1.53-1.557-1.53-2.65Z"/></g><g id="e"><path class="l" d="M176.939,151.694l-104.801,60.507c-.309.179-.691.179-1,0l-42.374-24.464c-.667-.385-.667-1.347,0-1.732l104.801-60.507c.309-.179.691-.179,1,0l42.374,24.464c.667.385.667,1.347,0,1.732Z"/></g><path class="k" d="M157.043,166.728c-1.338-.773-2.384-1.377-3.072-1.773-19.288,11.136-38.577,22.272-57.865,33.409,6.035,3.484,40.499,23.382,40.506,23.386,14.609-8.435,45.377-26.199,57.865-33.409,0,0-27.068-15.628-37.434-21.613Z"/><g id="f"><path class="k" d="M136.954,110.192V5.052c0-2.356-2.55-3.828-4.591-2.65L3.58,76.754c-.947.547-1.53,1.557-1.53,2.65v108.677"/></g><g id="g"><path class="m" d="M175.929,149.967c-6.477,3.739-12.954,7.479-19.431,11.218-13.541,7.818-27.081,15.635-40.622,23.453l-36.02,20.796-8.241,4.758c-.11.063-.406.165-.477.276.694-1.076,1.285.326.893-.062-.137-.136-.393-.227-.56-.323l-5.544-3.201c-11.805-6.816-23.611-13.632-35.416-20.447-.175-.101-.372-.26-.564-.326-.042-.014-.093-.077-.137-.079.718.044.382,1.719-.036,1.701.102.005.303-.184.392-.226.963-.463,1.879-1.085,2.804-1.619l12.256-7.076c13.145-7.589,26.289-15.178,39.434-22.767,12.648-7.302,25.295-14.604,37.943-21.906l10.382-5.994c.355-.205,1.361-.552,1.584-.915-.821,1.331-1.309-.347-.87.08.148.144.416.24.594.343l2.165,1.25c12.189,7.038,24.379,14.075,36.568,21.113l2.165,1.25c.175.101.372.26.564.326.76.258-.878-.809-.231-1.309-.855.661-.695,2.133,0,2.828.844.844,1.971.663,2.828,0,1.79-1.384,1.134-3.888-.563-4.965-.516-.327-1.063-.614-1.592-.919l-7.185-4.148-21.084-12.173-8.525-4.922c-1.262-.729-2.507-1.546-3.81-2.2-1.556-.781-2.701-.205-3.977.532l-3.623,2.092-13.758,7.943-19.547,11.286c-7.252,4.187-14.504,8.374-21.756,12.561l-20.719,11.962-16.105,9.298c-2.67,1.542-5.381,3.03-8.018,4.629-2.154,1.306-2.438,4.037-.176,5.471,1.5.951,3.09,1.784,4.628,2.672,6.651,3.84,13.301,7.679,19.952,11.519l16.517,9.536c1.39.802,2.632,1.428,4.278.564.792-.416,1.555-.898,2.329-1.345l11.733-6.774c6.142-3.546,12.284-7.092,18.426-10.638,7.203-4.159,14.406-8.317,21.609-12.476l21.32-12.309c5.829-3.365,11.657-6.73,17.486-10.096l10.365-5.984,1.392-.803c2.229-1.287.217-4.745-2.019-3.454Z"/></g><path class="m" d="M137.619,220.02l-13.66-7.884c-7.268-4.195-14.536-8.389-21.804-12.584l-5.046-2.912c-2.234-1.289-4.25,2.166-2.019,3.454,4.553,2.628,9.107,5.256,13.66,7.884,7.268,4.195,14.536,8.389,21.804,12.584l5.046,2.912c2.234,1.289,4.25-2.166,2.019-3.454h0Z"/><g id="h"><path class="m" d="M152.06,166.16c4.665,2.694,9.331,5.387,13.996,8.081l22.302,12.876,5.11,2.95c2.233,1.289,4.25-2.166,2.019-3.454-4.665-2.694-9.331-5.387-13.996-8.081l-22.302-12.876-5.11-2.95c-2.233-1.289-4.25,2.166-2.019,3.454h0Z"/></g><g id="i"><path class="m" d="M4.05,186.771v-7.884c0-6.54,0-13.08,0-19.62v-25.68c0-8.597,0-17.194,0-25.79,0-6.649,0-13.298,0-19.947v-6.037c0-.776-.097-1.623,0-2.395.105-.841.814-1.094,1.467-1.471l3.385-1.954c4.285-2.474,8.57-4.948,12.855-7.422l18.91-10.918c7.386-4.264,14.771-8.528,22.157-12.792,7.654-4.419,15.309-8.838,22.963-13.258,7.004-4.044,14.008-8.088,21.013-12.132,5.447-3.145,10.895-6.29,16.342-9.435l9.176-5.298c.543-.314,1.319-.946,1.967-.679.93.382.669,1.834.669,2.643,0,4.687,0,9.375,0,14.062s0,15.632,0,23.447c0,8.829,0,17.657,0,26.486,0,7.707,0,15.413,0,23.12,0,4.561,0,9.123,0,13.684,0,1.967.129,3.838,1.814,5.25.73.611,1.628,1.044,2.449,1.517l12.675,7.318c6.85,3.955,13.701,7.91,20.551,11.865,7.642,4.412,15.284,8.824,22.927,13.237,6.586,3.802,13.172,7.605,19.758,11.407l11.33,6.542c.898.518,2.31,1.348.936,2.39-.419.318-.949.548-1.403.81l-9.772,5.642-16.84,9.723c-7.048,4.069-14.097,8.139-21.145,12.208-7.667,4.426-15.333,8.853-23,13.279-7.369,4.254-14.737,8.508-22.106,12.763-6.159,3.556-12.319,7.112-18.478,10.669l-12.376,7.146-3.033,1.751c-.606.35-1.044.647-1.781.298-2.849-1.349-5.553-3.206-8.281-4.781-5.984-3.455-11.969-6.91-17.953-10.365l-22.523-13.004c-7.302-4.216-14.604-8.432-21.906-12.647l-16.42-9.48-4.378-2.528c-.687-.397-1.895-.833-1.949-1.737-.151-2.558-4.152-2.576-4,0,.148,2.506,1.645,3.872,3.6,5.001l4.378,2.527c5.459,3.152,10.917,6.303,16.376,9.455,7.391,4.267,14.781,8.534,22.172,12.801,7.577,4.374,15.153,8.749,22.73,13.123l18.049,10.421c2.705,1.562,5.376,3.222,8.131,4.694,3.214,1.718,5.828-.356,8.499-1.898l12.24-7.067,18.631-10.757,22.289-12.869,23.213-13.402,21.403-12.357c5.62-3.245,11.24-6.489,16.86-9.734l9.582-5.532c.724-.418,1.502-.807,2.123-1.375,2.535-2.32,1.866-6.319-.911-8.08-.159-.101-.329-.19-.492-.284-3.448-1.991-6.897-3.982-10.345-5.973-6.511-3.759-13.021-7.518-19.532-11.277-7.699-4.445-15.398-8.89-23.098-13.335-7.014-4.049-14.028-8.099-21.042-12.148-4.455-2.572-8.909-5.144-13.364-7.716-.66-.381-1.441-.714-2.046-1.181-.765-.59-.542-1.73-.542-2.609,0-4.8,0-9.6,0-14.4,0-7.935,0-15.871,0-23.806v-26.721c0-7.715,0-15.43,0-23.145,0-4.359,0-8.718,0-13.077,0-2.566-.906-5.073-3.674-5.869-1.791-.515-3.31.136-4.793.992l-8.934,5.158c-5.471,3.159-10.943,6.318-16.414,9.477-7.053,4.072-14.107,8.145-21.16,12.217-7.724,4.46-15.448,8.919-23.173,13.379-7.484,4.321-14.967,8.641-22.451,12.962-6.332,3.656-12.664,7.312-18.996,10.967-4.269,2.465-8.538,4.929-12.807,7.394-2.767,1.597-6.346,2.948-6.501,6.676-.113,2.71,0,5.45,0,8.162v46.145c0,8.629,0,17.258,0,25.887v27.172c0,2.574,4,2.578,4,0Z"/></g><g id="j"><path class="m" d="M135.1,109.952c-4.413,2.548-8.826,5.096-13.239,7.644-10.594,6.117-21.189,12.233-31.783,18.35-12.774,7.375-25.549,14.75-38.323,22.126-11.043,6.376-22.086,12.751-33.129,19.127-5.371,3.101-10.873,6.05-16.144,9.321-.073.045-.149.086-.224.129-2.229,1.287-.217,4.745,2.019,3.454,4.413-2.548,8.826-5.096,13.239-7.644,10.594-6.117,21.189-12.233,31.783-18.35,12.774-7.375,25.549-14.75,38.323-22.126l33.129-19.127c5.371-3.101,10.873-6.05,16.144-9.321.073-.045.149-.086.224-.129,2.229-1.287.217-4.745-2.019-3.454h0Z"/></g><path class="l" d="M152.911,174.809c.069,2.384.51,4.487,1.589,6.606,1.913,3.777,3.743,5.647,7.958,7.894,3.74,1.994,6.675,3.503,10.514,5.292,4.681,2.181,4.856,6.661,4.708,8.903-.409,6.194-.54,10.527-.695,15.249-.067,2.557,1.279,3.482,2.695,3.922,4.679,1.442,12.533.364,15.907-.441.461-.108.922-.5,1.246-.844.422-.441.991-1.167,1.069-1.776.202-1.695.369-3.126.52-4.432,5.822-.008,10.067.083,12.708-.064,2.569-.143,4.84-2.52,5.23-5.06,0,0,.29-1.98.31-2.1.84-6.54,1.26-12.28,1.68-19.25.2-3.46.33-7.11-1.24-10.19-1.14-2.21-2.94-4.08-5.04-5.43l-59.16,1.72Z"/><path class="k" d="M157.977,127.091c-3.096,1.873-4.728,3.619-7.12,7.605-3.81,6.347-5.158,14.614-5.306,22.278-.041,2.105.225,4.836.62,6.905.933,4.817,3.915,8.071,8.661,10.91,2.906,1.741,6.964,2.45,9.779,3.369l31.487-11.047,11.733-25.215c-3.584-8-9.069-15.573-15.671-20.615l-5.839-2.851-20.278,5.056-8.065,3.604Z"/><path class="k" d="M180.753,85.208c-7.073-3.36-15.807-2.359-22.713,2.218-8.214,5.442-8.523,16.071-5.578,23.684-1.394.829-2.426,2.291-2.581,3.944-.225,2.386,1.173,4.896,3.185,6.307,2.131,1.494,5.063,2.203,7.563,1.917,6.121,4.328,14.853,4.742,21.396.982,2.01-1.155,3.8-2.677,5.301-4.441,7.095-8.34,6.968-21.939-.452-30.068-1.799-1.97-3.876-3.476-6.121-4.543Z"/><path class="m" d="M194.135,224.3c1.44,1.016,2.812,2.11,3.99,3.427.97,1.085,2.282,2.677,2.098,4.25-.167,1.432-1.795,2.643-3.087,3.009-1.118.317-2.762.231-4.102.078-3.051-.348-5.98-2.339-8.467-4.028-1.166-.792-2.324-1.67-2.923-2.99-.589-1.299-.643-3.002-.053-4.314.443-.984.284-2.151-.718-2.736-.855-.5-2.291-.273-2.736.718-1.579,3.511-1.102,7.547,1.514,10.432,2.294,2.53,5.823,4.297,8.87,5.73,2.732,1.285,6.069,1.615,9.044,1.106,3.713-.635,7.097-4.245,6.585-8.12-.577-4.375-4.628-7.638-7.998-10.016-.883-.623-2.224-.158-2.736.718-.585,1-.168,2.112.718,2.736h0Z"/><path class="m" d="M211.351,216.138c1.079,1.368,2.83,2.363,4.156,3.499,1.139.975,2.451,2.054,3.003,3.491.489,1.274.279,2.528-.709,3.46-1.103,1.04-2.262,1.319-3.743,1.279-3.35-.09-6.19-1.873-8.903-3.698-1.341-.902-2.521-1.874-3.359-3.276-.611-1.022-1.173-2.458-.783-3.587.843-2.438-3.019-3.485-3.857-1.063-1.076,3.11.846,6.748,2.924,8.96,1.226,1.304,2.799,2.287,4.304,3.236,1.569.989,3.201,1.843,4.917,2.548,2.975,1.221,6.875,1.409,9.676-.31,3.005-1.845,4.559-5.158,3.389-8.611-.652-1.927-1.991-3.437-3.481-4.775-.793-.712-1.629-1.375-2.458-2.043-.756-.609-1.646-1.173-2.248-1.937-.67-.849-2.128-.701-2.828,0-.838.838-.671,1.978,0,2.828h0Z"/><path class="m" d="M193.254,138.569v14.712c0,2.574,4,2.578,4,0v-14.712c0-2.574-4-2.578-4,0h0Z"/><path class="m" d="M211.061,174.816c3.206,2.119,5.127,5.236,5.363,9.089.255,4.171-.278,8.462-.598,12.62-.287,3.738-.617,7.582-1.135,11.236-.333,2.352-.913,5.111-3.793,5.371-3.816.344-7.757.054-11.582.052-2.574-.001-2.578,3.999,0,4,3.85.002,7.737.178,11.582-.052,3.867-.232,6.881-3.198,7.456-6.991.597-3.934,1.001-7.898,1.331-11.863.394-4.725,1.024-9.63.738-14.372-.322-5.327-2.908-9.611-7.345-12.543-2.154-1.423-4.159,2.039-2.019,3.454h0Z"/><path class="m" d="M196.566,185.152c.737.512,1.267,1.267,1.629,2.082.158.355.268.735.366,1.11.053.205.103.41.141.619.034.186-.025-.339,0,.063.096,1.49.025,2.988-.057,4.476-.211,3.807-.651,7.592-1.071,11.38-.367,3.311-.728,6.622-1.108,9.931-.096.832-.192,1.665-.29,2.497-.106.903-.037,1.83-.646,2.544-.808.947-2.883.947-4.049,1.109-3.526.49-7.501.849-10.972-.131-1.476-.417-1.55-1.281-1.499-2.823.065-1.982.131-3.964.212-5.945.088-2.146.196-4.292.325-6.436.092-1.531.251-3.047.072-4.576-.432-3.698-2.47-6.67-5.857-8.281-2.358-1.122-4.704-2.261-7.021-3.464-2.174-1.129-4.47-2.189-6.436-3.668-3.345-2.517-5.233-6.716-5.394-10.83-.1-2.566-4.101-2.578-4,0,.178,4.553,1.901,9.004,5.078,12.323s7.816,5.209,11.848,7.212c2.019,1.002,4.573,1.747,6.181,3.378.98.994,1.507,2.455,1.642,3.692.193,1.761-.079,3.58-.179,5.337-.136,2.399-.244,4.8-.333,7.202-.077,2.084-.436,4.425-.014,6.479.417,2.029,1.87,3.423,3.779,4.093,3.8,1.335,8.341.974,12.261.479,1.724-.217,3.649-.356,5.289-.971,1.116-.419,1.992-1.34,2.653-2.307.731-1.071.803-2.241.951-3.494.425-3.603.828-7.209,1.226-10.816.517-4.687,1.107-9.37,1.36-14.081.095-1.769.228-3.607-.082-5.364-.45-2.549-1.868-4.801-3.986-6.273s-4.12,1.993-2.019,3.454h0Z"/><path class="m" d="M165.143,176.23c-1.922-.613-3.894-1.054-5.815-1.671s-3.638-1.508-5.299-2.665c-2.891-2.014-5.097-4.707-5.857-8.197-.914-4.201-.702-8.621-.23-12.864.478-4.294,1.452-8.693,3.304-12.616,1.789-3.788,4.133-7.188,7.74-9.399,2.191-1.343.184-4.804-2.019-3.454-7.844,4.81-11.444,14.291-12.71,23.024-.717,4.947-.968,9.917-.211,14.873.64,4.196,2.67,7.823,5.938,10.546,2.047,1.705,4.28,3.115,6.767,4.079,2.383.924,4.898,1.426,7.328,2.202,2.458.784,3.51-3.076,1.063-3.857h0Z"/><path class="k" d="M207.833,174.155c-7.712,4.459-18.492,10.63-23.619,13.673-.626.372-1.394.376-2.022.008-3.87-2.264-12.997-7.5-16.595-9.621l20.186-11.465c.383-3.794.721-7.147.721-7.147.064-.636.426-1.202.978-1.524,7.39-4.319,19.417-11.199,26.659-15.412,1.412-.821,3.155.306,2.99,1.931-.829,8.211-1.657,16.422-2.48,24.634-.064.634-.419,1.196-.968,1.519-1.523.897-3.55,2.074-5.85,3.404Z"/><path class="m" d="M159.837,148.924c-.753,3.874-1.11,7.836-1.46,11.763-.093,1.045.986,2.045,2,2,1.163-.052,1.9-.881,2-2,.186-2.09.39-4.178.642-6.261.054-.448.11-.895.17-1.342-.066.497.032-.224.045-.311.027-.188.054-.376.083-.564.112-.743.235-1.484.378-2.222.199-1.024-.288-2.208-1.397-2.46-.989-.225-2.247.299-2.46,1.397h0Z"/><path class="m" d="M164.587,179.942c4.09,2.409,8.212,4.765,12.322,7.141.943.545,1.886,1.091,2.828,1.639,1.086.631,2.155,1.39,3.466,1.388,2.007-.003,4.205-1.844,5.888-2.824,8.393-4.887,16.941-9.545,25.237-14.594,1.147-.698,1.994-1.571,2.251-2.929.367-1.935.418-3.991.615-5.951.38-3.777.76-7.554,1.141-11.331.182-1.806.364-3.613.547-5.419.168-1.669.582-3.38-.413-4.878-.748-1.126-2.099-1.849-3.46-1.787-1.412.064-2.603.965-3.783,1.649-5.045,2.923-10.101,5.827-15.152,8.74-2.46,1.419-4.918,2.839-7.373,4.266-2.037,1.184-3.919,2.088-4.209,4.661-.664,5.883-1.189,11.786-1.783,17.677-.109,1.076.997,2,2,2,1.172,0,1.891-.921,2-2,.523-5.181,1.045-10.362,1.568-15.543.066-.653-.012-1.584.222-2.204-.031.082.06.137-.009.162.518-.193,1.03-.601,1.509-.88,1.05-.611,2.102-1.221,3.153-1.831,4.721-2.734,9.45-5.453,14.176-8.178,2.161-1.246,4.321-2.492,6.479-3.744.446-.259.91-.499,1.342-.779.02-.013-.005.037.005-.033-.172,1.225-.321,3.179-.472,4.671-.348,3.449-.696,6.897-1.043,10.346-.174,1.724-.347,3.449-.52,5.173-.082.821-.165,1.642-.247,2.463-.051.511.065,1.675-.251,2.084-.13.168-1.396.774-1.83,1.027-.824.48-1.649.959-2.475,1.438-1.941,1.125-3.885,2.246-5.829,3.366-4.177,2.407-8.357,4.81-12.529,7.226-1.939,1.123-3.878,2.248-5.809,3.386-.192.113-.734.556-.948.568-.242.013-.791-.461-1.001-.582-.952-.554-1.905-1.106-2.859-1.657-4.248-2.457-8.509-4.891-12.738-7.382-2.223-1.309-4.238,2.147-2.019,3.454h0Z"/><path class="m" d="M154.147,109.921c-2.029-5.842-2.215-13.229,2.029-18.192,4.456-5.21,12.664-7.48,19.277-6.165,7.124,1.417,12.499,6.796,14.354,13.763,1.793,6.734.345,14.49-4.437,19.69-6.084,6.617-16.28,7.64-23.668,2.576-2.129-1.459-4.132,2.006-2.019,3.454,7.67,5.256,18.458,4.982,25.798-.728,6.896-5.364,9.96-14.323,8.804-22.862-1.153-8.518-6.602-15.962-14.779-18.919-7.897-2.856-17.382-.952-23.91,4.215-7.221,5.716-8.165,16.004-5.307,24.231.839,2.417,4.705,1.377,3.857-1.063h0Z"/><path class="m" d="M153.95,108.481c-2.153.291-4.165,1.777-5.206,3.669-1.145,2.083-1.099,4.505-.188,6.663,1.867,4.424,6.839,6.701,11.469,6.514,1.044-.042,2.05-.89,2-2-.047-1.047-.88-2.045-2-2-.446.018-.891.015-1.337-.019-.073-.006-.724-.087-.408-.038-.21-.033-.419-.072-.626-.116-.417-.089-.83-.2-1.236-.333-.203-.066-.403-.139-.602-.215-.378-.146.029.037-.301-.135-.404-.21-.802-.415-1.184-.664-.065-.042-.572-.425-.316-.214-.151-.125-.298-.255-.439-.392s-.279-.279-.41-.425c-.006-.006-.383-.479-.183-.209-.253-.342-.475-.71-.666-1.09-.045-.087-.087-.175-.127-.264.061.149.066.159.015.028-.079-.212-.15-.426-.208-.644-.05-.185-.09-.373-.124-.562.063.35-.007-.118-.011-.224-.008-.191,0-.377.004-.568.008-.467-.087.202.027-.2.049-.174.097-.35.144-.525.082-.218.082-.227-.001-.026.037-.082.078-.163.121-.242.084-.16.177-.315.277-.465.049-.076.101-.15.155-.222-.127.168-.116.163.031-.013.13-.123.26-.254.384-.382.351-.366-.262.143.161-.135.151-.099.301-.197.459-.285.1-.055.498-.231.173-.103.392-.154.8-.247,1.217-.304,1.041-.141,1.699-1.528,1.397-2.46-.37-1.145-1.345-1.548-2.46-1.397h0Z"/><path class="m" d="M180.207,110.601c.011.145.13,1.598,1.26,2.364.741.502,1.471.366,1.7.319.177-.036,1.324-.294,1.826-1.526.476-1.167.21-2.811-.832-3.702-1.08-.923-2.471-.642-3.24.237-.693.792-.757,1.569-.715,2.309Z"/><path class="m" d="M167.921,113.9c.011.145.13,1.598,1.335,2.357.79.498,1.572.357,1.818.309.189-.037,1.419-.303,1.964-1.538.516-1.171.241-2.814-.868-3.699-1.15-.917-2.641-.628-3.469.256-.746.796-.819,1.575-.779,2.315Z"/><path class="k" d="M178.015,168.749c-.289-.428-.632-.826-1.025-1.184-2.702-2.465-8.025-2.939-10.291.281-1.674,2.379-2.641,4.989-2.741,8.187-.01.306-.087.727.378,1.193.93.689,2.889,2,5.75,2.417,1.897.276,3.172.074,4.792-.917,4.541-2.778,5.098-7.07,3.137-9.977Z"/><path class="m" d="M179.742,167.739c-2.206-3.152-6.034-4.603-9.802-4.015-3.987.622-6.223,4.314-7.298,7.9-.313,1.044-.489,2.123-.602,3.206-.108,1.028-.211,2.124.314,3.065.81,1.454,2.955,2.345,4.419,2.928,1.977.788,4.241,1.152,6.346.763,2.014-.372,3.999-1.74,5.379-3.214,2.708-2.892,3.487-7.222,1.246-10.634-.592-.902-1.769-1.283-2.736-.718-.896.524-1.313,1.83-.718,2.736.158.241.293.49.431.742.058.107.169.439.018.019.053.146.107.291.153.439.076.248.112.505.18.754-.107-.395-.018-.2-.01-.068.012.21.029.417.027.627-.001.132-.013.264-.017.396-.004.127-.081.475.006.026-.052.269-.106.536-.185.799-.048.162-.106.319-.164.478.13-.356.037-.079-.002-.003-.166.319-.331.634-.532.933-.015.022-.381.503-.136.201-.103.127-.21.249-.321.37-.256.279-.534.53-.812.785-.372.341-1.212.884-1.873,1.189.242-.112-.152.059-.211.079-.161.055-.323.103-.489.143-.024.006-.661.1-.264.061-.137.014-.275.02-.413.025-.863.026-1.424-.068-2.258-.276-1.411-.352-2.221-.722-3.481-1.564-.163-.109-.329-.261-.503-.352l.376.315c.112.597.16.732.141.406.019-.062.009-.191.01-.25.027-.923.086-1.447.263-2.264.355-1.645.829-2.769,1.713-4.174.079-.125.159-.249.241-.372.019-.029.451-.613.15-.242.181-.223.386-.415.593-.612.37-.352-.314.157.129-.092.097-.054.188-.12.285-.175.145-.083.295-.157.446-.229-.403.19.05-.01.149-.042.325-.106.656-.179.992-.238-.482.085.076,0,.154-.006.174-.011.348-.017.522-.017.175,0,.35.006.525.018.15.01.528.058.168.004.349.052.694.126,1.034.22.169.047.337.099.503.156.11.038.22.078.328.12-.182-.081-.208-.091-.077-.033.312.143.616.302.908.483.12.074.234.155.352.232.318.208-.178-.187.18.151.322.304.617.61.774.834.619.884,1.75,1.294,2.736.718.875-.512,1.34-1.847.718-2.736Z"/><path class="m" d="M191.15,123.009c6.626,5.106,11.54,12.336,14.953,19.897.444.985,1.874,1.222,2.736.718,1.013-.592,1.164-1.748.718-2.736-3.724-8.248-9.192-15.788-16.388-21.332-.856-.66-2.24-.131-2.736.718-.604,1.032-.141,2.075.718,2.736h0Z"/><path class="m" d="M189.044,97.266c-2.235,1.78-6.349-.205-8.593-1.039-3.22-1.197-5.678.065-8.199,2.065-.985.781-1.907,1.647-2.96,2.339-1.392.914-2.84,1.755-4.291,2.57-3.037,1.705-6.173,3.225-9.438,4.44-2.392.89-1.357,4.757,1.063,3.857,6.377-2.372,12.596-5.573,17.863-9.898.857-.704,1.979-1.757,3.126-1.919.659-.093,1.364.252,1.972.479.804.301,1.607.585,2.427.839,3.405,1.056,6.913,1.444,9.86-.903.846-.673.703-2.125,0-2.828-.835-.835-1.981-.675-2.828,0h0Z"/></g></svg>